<svg width="39" height="38" viewBox="0 0 39 38" fill="none" xmlns="http://www.w3.org/2000/svg">
<path d="M19.2567 35.625C13.3281 35.625 6.82415 32.5316 5.65792 25.6209C4.92075 21.2598 6.34153 16.7414 9.65728 12.8998C10.6996 11.7 11.8612 10.6064 13.1247 9.63538C9.50142 8.52328 5.43466 7.91647 1.20361 7.91647V2.375C7.85257 2.375 14.0791 3.66106 19.2567 5.99628C24.4343 3.66166 30.6609 2.375 37.3098 2.375V7.91647C33.0782 7.91647 29.012 8.52328 25.3881 9.63597C26.6514 10.6068 27.8129 11.7002 28.8549 12.8998C32.1713 16.7414 33.5915 21.2592 32.8549 25.6215C31.6893 32.5316 25.1854 35.625 19.2567 35.625ZM19.2567 12.2449C17.1493 13.4472 15.3512 14.8734 13.9605 16.4843C12.3857 18.3083 10.6327 21.2177 11.2231 24.7148C11.8489 28.4234 15.7081 30.0835 19.2567 30.0835C22.8053 30.0835 26.6645 28.4234 27.2903 24.7154C27.8801 21.2171 26.1271 18.3077 24.5517 16.4837C23.161 14.8728 21.3635 13.4472 19.2567 12.2449Z" fill="#E30613"/>
</svg>
